<?xml version="1.0" standalone="no"?><!DOCTYPE svg PUBLIC "-//W3C//DTD SVG 1.1//EN" "http://www.w3.org/Graphics/SVG/1.1/DTD/svg11.dtd"><svg t="1766765998875" class="icon" viewBox="0 0 1024 1024" version="1.1" xmlns="http://www.w3.org/2000/svg" p-id="29180" width="64" height="64" xmlns:xlink="http://www.w3.org/1999/xlink"><path d="M905.273962 168.979321v538.817207H239.403472a120.832 120.832 0 0 0-120.677434 120.677434V168.979321c0-32.207698 12.558491-62.425358 35.318339-85.185208A119.788679 119.788679 0 0 1 239.384151 48.301887H784.615849a120.716075 120.716075 0 0 1 120.677434 120.677434z" fill="#F9B938" p-id="29181"></path><path d="M431.87683 116.23366h-17.968302a13.659774 13.659774 0 0 1 0-27.319547h17.968302a13.659774 13.659774 0 0 1 0 27.319547zM577.767849 116.23366h-100.429283a13.659774 13.659774 0 0 1 0-27.319547h100.429283a13.659774 13.659774 0 0 1 0 27.319547zM325.941132 584.761962a13.659774 13.659774 0 0 1-13.659774-13.640453v-69.593358a13.659774 13.659774 0 0 1 27.300227 0v69.593358c0 7.535094-6.105358 13.640453-13.659774 13.640453zM325.941132 462.693434a13.659774 13.659774 0 0 1-13.659774-13.659774v-12.461886a13.659774 13.659774 0 0 1 27.300227 0v12.461886c0 7.535094-6.105358 13.659774-13.659774 13.659774z" fill="#FFFFFF" opacity=".3" p-id="29182"></path><path d="M830.096906 57.228075a120.252377 120.252377 0 0 1 22.566641 70.250265v392.655698a146.161509 146.161509 0 0 1-146.161509 146.161509H231.539925v41.906717c2.608302-0.193208 5.216604-0.405736 7.863547-0.405736h665.87049V168.979321a120.928604 120.928604 0 0 0-75.157736-111.751246z" fill="#ECB021" p-id="29183"></path><path d="M272.171472 48.301887v659.494641h-32.768a120.832 120.832 0 0 0-120.677434 120.677434V168.979321c0-32.207698 12.558491-62.425358 35.318339-85.185208A119.788679 119.788679 0 0 1 239.384151 48.301887z" fill="#7979F7" p-id="29184"></path><path d="M163.530868 477.299925a13.659774 13.659774 0 0 1-13.659774-13.659774v-171.645585a13.659774 13.659774 0 0 1 27.300227 0v171.645585c0 7.535094-6.105358 13.659774-13.640453 13.659774zM163.530868 239.577358a13.659774 13.659774 0 0 1-13.659774-13.640452v-25.85117a13.659774 13.659774 0 0 1 27.300227 0v25.85117c0 7.535094-6.105358 13.659774-13.640453 13.659773z" fill="#FFFFFF" opacity=".3" p-id="29185"></path><path d="M272.171472 48.301887v659.494641h-32.768a120.832 120.832 0 0 0-120.677434 120.677434V696.899623c4.752906-4.269887 13.002868-8.153358 22.972377-11.611774 53.228679-18.509283 89.880151-67.390792 89.880151-123.749434V56.126792l7.824906-7.824905z" fill="#5E5EEF" p-id="29186"></path><path d="M905.273962 707.796528v155.049057a86.51834 86.51834 0 0 1-86.518339 86.499019H243.596075c-61.343396 0-116.117736-44.051321-123.788075-104.834415-9.46717-73.728 47.87683-136.71366 119.595472-136.713661z" fill="#E4E3FF" p-id="29187"></path><path d="M484.60317 828.473962v135.631698a11.573132 11.573132 0 0 1-18.992302 8.887548l-45.481057-38.003925a11.573132 11.573132 0 0 0-14.838339 0l-45.500378 38.003925a11.573132 11.573132 0 0 1-18.992302-8.887548v-135.631698z" fill="#FC6559" p-id="29188"></path><path d="M340.798792 828.473962h143.804378v50.42717h-143.804378z" fill="#F05543" p-id="29189"></path><path d="M905.273962 707.796528v30.951849H239.403472a120.696755 120.696755 0 0 0-119.595472 105.20151c-9.080755-73.534792 48.070038-136.153358 119.595472-136.153359z" fill="#C2C2EF" p-id="29190"></path><path d="M792.150943 194.985057v166.815396a35.105811 35.105811 0 0 1-35.105811 35.105811H395.882264a35.105811 35.105811 0 0 1-35.105811-35.105811v-166.815396c0-19.398038 15.707774-35.125132 35.105811-35.125132h361.182189c19.398038 0 35.125132 15.727094 35.125132 35.125132z" fill="#FFFFFF" p-id="29191"></path><path d="M792.228226 195.023698v166.738113a35.163774 35.163774 0 0 1-35.125132 35.125132H395.76634c-15.282717 0-28.401509-9.834264-32.941887-23.667924 5.100679 2.55034 10.74234 4.192604 16.751094 4.192604h361.336755a35.163774 35.163774 0 0 0 35.125132-35.125132v-166.738114c0-3.825509-0.734189-7.651019-1.816151-11.109434 10.723019 5.989434 18.006943 17.292075 18.006943 30.584755z" fill="#E4E3FF" p-id="29192"></path><path d="M825.537208 847.891321h-561.461133a19.320755 19.320755 0 1 1 0-38.64151h561.461133a19.320755 19.320755 0 1 1 0 38.64151z" fill="#474646" p-id="29193"></path><path d="M721.050566 224.893585a11.01283 11.01283 0 0 1-11.032151 11.032151H442.908981a11.01283 11.01283 0 0 1 0-22.044981h267.109434a11.01283 11.01283 0 0 1 11.01283 11.01283zM721.050566 278.392755a11.01283 11.01283 0 0 1-11.032151 11.01283H442.908981a11.01283 11.01283 0 0 1 0-22.044981h267.109434a11.01283 11.01283 0 0 1 11.01283 11.01283zM721.050566 331.872604a11.01283 11.01283 0 0 1-11.032151 11.01283H442.908981a11.01283 11.01283 0 0 1 0-22.02566h267.109434a11.01283 11.01283 0 0 1 11.01283 11.01283z" fill="#E4E3FF" p-id="29194"></path><path d="M905.273962 168.979321v538.817207H239.403472a120.832 120.832 0 0 0-120.677434 120.677434V168.979321c0-32.207698 12.558491-62.425358 35.318339-85.185208A119.788679 119.788679 0 0 1 239.384151 48.301887H784.615849a120.716075 120.716075 0 0 1 120.677434 120.677434z" fill="#F9B938" p-id="29195"></path><path d="M431.87683 116.23366h-17.968302a13.659774 13.659774 0 0 1 0-27.319547h17.968302a13.659774 13.659774 0 0 1 0 27.319547zM577.767849 116.23366h-100.429283a13.659774 13.659774 0 0 1 0-27.319547h100.429283a13.659774 13.659774 0 0 1 0 27.319547zM325.941132 584.761962a13.659774 13.659774 0 0 1-13.659774-13.640453v-69.593358a13.659774 13.659774 0 0 1 27.300227 0v69.593358c0 7.535094-6.105358 13.640453-13.659774 13.640453zM325.941132 462.693434a13.659774 13.659774 0 0 1-13.659774-13.659774v-12.461886a13.659774 13.659774 0 0 1 27.300227 0v12.461886c0 7.535094-6.105358 13.659774-13.659774 13.659774z" fill="#FFFFFF" opacity=".3" p-id="29196"></path><path d="M830.096906 57.228075a120.252377 120.252377 0 0 1 22.566641 70.250265v392.655698a146.161509 146.161509 0 0 1-146.161509 146.161509H231.539925v41.906717c2.608302-0.193208 5.216604-0.405736 7.863547-0.405736h665.87049V168.979321a120.928604 120.928604 0 0 0-75.157736-111.751246z" fill="#ECB021" p-id="29197"></path><path d="M272.171472 48.301887v659.494641h-32.768a120.832 120.832 0 0 0-120.677434 120.677434V168.979321c0-32.207698 12.558491-62.425358 35.318339-85.185208A119.788679 119.788679 0 0 1 239.384151 48.301887z" fill="#7979F7" p-id="29198"></path><path d="M163.530868 477.299925a13.659774 13.659774 0 0 1-13.659774-13.659774v-171.645585a13.659774 13.659774 0 0 1 27.300227 0v171.645585c0 7.535094-6.105358 13.659774-13.640453 13.659774zM163.530868 239.577358a13.659774 13.659774 0 0 1-13.659774-13.640452v-25.85117a13.659774 13.659774 0 0 1 27.300227 0v25.85117c0 7.535094-6.105358 13.659774-13.640453 13.659773z" fill="#FFFFFF" opacity=".3" p-id="29199"></path><path d="M272.171472 48.301887v659.494641h-32.768a120.832 120.832 0 0 0-120.677434 120.677434V696.899623c4.752906-4.269887 13.002868-8.153358 22.972377-11.611774 53.228679-18.509283 89.880151-67.390792 89.880151-123.749434V56.126792l7.824906-7.824905z" fill="#5E5EEF" p-id="29200"></path><path d="M905.273962 707.796528v155.049057a86.51834 86.51834 0 0 1-86.518339 86.499019H243.596075c-61.343396 0-116.117736-44.051321-123.788075-104.834415-9.46717-73.728 47.87683-136.71366 119.595472-136.713661z" fill="#E4E3FF" p-id="29201"></path><path d="M484.60317 828.473962v135.631698a11.573132 11.573132 0 0 1-18.992302 8.887548l-45.481057-38.003925a11.573132 11.573132 0 0 0-14.838339 0l-45.500378 38.003925a11.573132 11.573132 0 0 1-18.992302-8.887548v-135.631698z" fill="#1296db" p-id="29202" data-spm-anchor-id="a313x.search_index.0.i12.5d453a81OzvbAX" class="selected"></path><path d="M340.798792 828.473962h143.804378v50.42717h-143.804378z" fill="#1296db" p-id="29203" data-spm-anchor-id="a313x.search_index.0.i13.5d453a81OzvbAX" class=""></path><path d="M905.273962 707.796528v30.951849H239.403472a120.696755 120.696755 0 0 0-119.595472 105.20151c-9.080755-73.534792 48.070038-136.153358 119.595472-136.153359z" fill="#C2C2EF" p-id="29204"></path><path d="M792.150943 194.985057v166.815396a35.105811 35.105811 0 0 1-35.105811 35.105811H395.882264a35.105811 35.105811 0 0 1-35.105811-35.105811v-166.815396c0-19.398038 15.707774-35.125132 35.105811-35.125132h361.182189c19.398038 0 35.125132 15.727094 35.125132 35.125132z" fill="#FFFFFF" p-id="29205"></path><path d="M792.228226 195.023698v166.738113a35.163774 35.163774 0 0 1-35.125132 35.125132H395.76634c-15.282717 0-28.401509-9.834264-32.941887-23.667924 5.100679 2.55034 10.74234 4.192604 16.751094 4.192604h361.336755a35.163774 35.163774 0 0 0 35.125132-35.125132v-166.738114c0-3.825509-0.734189-7.651019-1.816151-11.109434 10.723019 5.989434 18.006943 17.292075 18.006943 30.584755z" fill="#E4E3FF" p-id="29206"></path><path d="M825.537208 847.891321h-561.461133a19.320755 19.320755 0 1 1 0-38.64151h561.461133a19.320755 19.320755 0 1 1 0 38.64151z" fill="#474646" p-id="29207"></path><path d="M721.050566 224.893585a11.01283 11.01283 0 0 1-11.032151 11.032151H442.908981a11.01283 11.01283 0 0 1 0-22.044981h267.109434a11.01283 11.01283 0 0 1 11.01283 11.01283zM721.050566 278.392755a11.01283 11.01283 0 0 1-11.032151 11.01283H442.908981a11.01283 11.01283 0 0 1 0-22.044981h267.109434a11.01283 11.01283 0 0 1 11.01283 11.01283zM721.050566 331.872604a11.01283 11.01283 0 0 1-11.032151 11.01283H442.908981a11.01283 11.01283 0 0 1 0-22.02566h267.109434a11.01283 11.01283 0 0 1 11.01283 11.01283z" fill="#E4E3FF" p-id="29208"></path></svg>